# xmcd
#
# Track frame offsets:
#	150
#	17952
#	32932
#	47187
#	59552
#	71382
#	87405
#	101587
#	114447
#	131845
#	149980
#	166840
#
# Disc length: 2378 seconds
#
# Revision: 0
# Processed by: cddbd v1.5.2PL0 Copyright (c) Steve Scherf et al.
# Submitted via: dBpowerAMP V4.0
#
DISCID=b509480c
DTITLE=Lorrie Morgan - What Part Of No
DYEAR=2005
DGENRE=Country
TTITLE0=To Get To You
TTITLE1=I Didn't Know My Own Strength
TTITLE2=Crying Time
TTITLE3=What Part Of No
TTITLE4=Another Lonely Song
TTITLE5=Five Minutes
TTITLE6=Tears On My Pillow
TTITLE7=Go Away
TTITLE8=One Of Those Nights Tonight
TTITLE9=If I Cry
TTITLE10=Back In Your Arms Again
TTITLE11=Eight Days A Week
EXTD=
EXTT0=
EXTT1=
EXTT2=
EXTT3=
EXTT4=
EXTT5=
EXTT6=
EXTT7=
EXTT8=
EXTT9=
EXTT10=
EXTT11=
PLAYORDER=
